<svg xmlns="http://www.w3.org/2000/svg" width="537" height="184" fill="none"><g fill="#fff" clip-path="url(#a)"><path d="M25.367 0H0v107.329h25.367V0Zm76.821 67.88L63.522 0H41.641v107.329H65.94l-.675-65.554 38.121 65.554h22.023V0h-24.3l1.079 67.88Zm64.073-1.446h28.863V42.35h-28.863V24.07h29.941V0h-54.229v107.329h24.288V66.434ZM233.593 0h-25.366v107.329h25.366V0Zm100.042 0h-24.299l1.078 67.88L271.749 0h-21.882v107.329h24.3l-.676-65.554 38.132 65.554h22.012V0Zm41.911 0H350.18v107.329h25.366V0Zm9.27 24.072h19.605v83.257h25.367V24.072h19.464V0h-64.436v24.072ZM509.646 0l-14.9 43.08L479.977 0h-27.512l29.658 68.314v39.015h25.378V68.314L536.897 0h-27.251ZM168.747 159.961c2.941-1.848 4.705-5.64 4.705-9.357 0-7.075-4.966-12.976-13.081-12.976h-18.516V184h19.78c7.776 0 13.429-5.879 13.429-13.421 0-4.543-2.309-8.781-6.317-10.618Zm-20.226-15.954h11.85c4.139 0 6.383 3.413 6.383 6.76s-2.429 6.586-6.383 6.586h-11.85v-13.357.011Zm13.114 33.57h-13.114v-14.171h13.114c4.073 0 6.862 3.38 6.862 7.031 0 3.652-2.658 7.14-6.862 7.14Zm34.577-39.949L178.48 184h7.08l3.409-9.661h21.675l3.409 9.661h7.079l-17.731-46.372h-7.211.022Zm-5.25 30.734 8.844-22.714 8.844 22.714h-17.699.011Zm69.883-16.639c0-8.672-5.751-14.073-14.606-14.073h-18.462v46.34h6.633v-18.204h10.718l9.704 18.204h7.712l-10.402-19.193c5.304-2.01 8.692-6.727 8.692-13.084l.011.01Zm-14.922 7.684h-11.502v-15.302h11.502c5.282 0 7.994 3 7.994 7.618 0 4.619-2.723 7.684-7.994 7.684Zm53.086.554c2.941-1.848 4.705-5.64 4.705-9.357 0-7.075-4.967-12.976-13.081-12.976h-18.516V184h19.78c7.776 0 13.429-5.879 13.429-13.421 0-4.543-2.309-8.781-6.317-10.618Zm-20.226-15.954h11.85c4.139 0 6.383 3.413 6.383 6.76s-2.429 6.586-6.383 6.586h-11.85v-13.357.011Zm13.114 33.57h-13.114v-14.171h13.114c4.073 0 6.861 3.38 6.861 7.031 0 3.652-2.657 7.14-6.861 7.14Zm29.681-14.138h20.127v-6.521h-20.127v-12.769h23.449v-6.521h-30.093V184h30.747v-6.52h-24.103v-14.041Zm66.165-11.716c0-8.672-5.751-14.073-14.606-14.073h-18.461v46.34h6.633v-18.204h10.717l9.705 18.204h7.711l-10.401-19.193c5.304-2.01 8.691-6.727 8.691-13.084l.011.01Zm-14.911 7.684h-11.501v-15.302h11.501c5.283 0 7.995 3 7.995 7.618 0 4.619-2.723 7.684-7.995 7.684Z"/></g><defs><clipPath id="a"><path fill="#fff" d="M0 0h536.896v184H0z"/></clipPath></defs></svg>